Coordinates
version=1
nRows=34
nColumns=38
inDegrees=no

Units are S.I. units (second, meters, Newtons, ...)
If the header above contains a line with 'inDegrees', this indicates whether rotational values are in degrees (yes) or radians (no).

endheader
time	pelvis_tilt	pelvis_list	pelvis_rotation	pelvis_tx	pelvis_ty	pelvis_tz	hip_flexion_r	hip_adduction_r	hip_rotation_r	knee_angle_r	ankle_angle_r	subtalar_angle_r	mtp_angle_r	hip_flexion_l	hip_adduction_l	hip_rotation_l	knee_angle_l	ankle_angle_l	subtalar_angle_l	mtp_angle_l	lumbar_extension	lumbar_bending	lumbar_rotation	arm_flex_r	arm_add_r	arm_rot_r	elbow_flex_r	pro_sup_r	wrist_flex_r	wrist_dev_r	arm_flex_l	arm_add_l	arm_rot_l	elbow_flex_l	pro_sup_l	wrist_flex_l	wrist_dev_l
0	-2.75247	1.46123	1.20284	0.852518	1.34366	1.00071	0.609577	-0.0125228	-0.108378	0.533437	-0.183315	0	0	0.0044506	-0.0935086	-0.339122	0.511704	-0.0980571	0	0	0.048359	0.168011	0.315558	-0.495681	-0.569858	-0.325077	1.68956	0.536422	0	0	0.43662	-0.326193	0.634711	1.03697	0.732471	0	0
0.01	-2.74396	1.45977	1.1931	0.850605	1.33395	0.999347	0.60074	-0.0041016	-0.106962	0.527483	-0.184473	0	0	0.00133769	-0.0960041	-0.329377	0.524303	-0.0945672	0	0	0.0507988	0.171492	0.317651	-0.494518	-0.568596	-0.325656	1.68742	0.536234	0	0	0.435454	-0.326358	0.634575	1.03801	0.733072	0	0
0.02	-2.7222	1.46013	1.1708	0.848408	1.32402	0.998075	0.589611	0.00503107	-0.105239	0.528044	-0.189333	0	0	-0.000487641	-0.102232	-0.322301	0.546505	-0.0899573	0	0	0.0506831	0.1755	0.319145	-0.493469	-0.567317	-0.326275	1.68666	0.537286	0	0	0.434601	-0.327285	0.634144	1.03984	0.734646	0	0
0.03	-2.69677	1.46107	1.1453	0.846114	1.31406	0.996805	0.578917	0.0142645	-0.10185	0.533743	-0.199478	0	0	-4.84604e-06	-0.109667	-0.313249	0.575488	-0.0850857	0	0	0.0489983	0.179658	0.32032	-0.492862	-0.566339	-0.327477	1.68767	0.539234	0	0	0.433968	-0.328852	0.633367	1.04301	0.736964	0	0
0.04	-2.68068	1.46047	1.12884	0.84378	1.30423	0.995425	0.573409	0.0222345	-0.0967442	0.541008	-0.214142	0	0	0.00534943	-0.116867	-0.300117	0.610317	-0.0810366	0	0	0.0487051	0.183693	0.321885	-0.492882	-0.565843	-0.328846	1.68976	0.541004	0	0	0.433137	-0.330224	0.632033	1.04631	0.738674	0	0
0.05	-2.67663	1.45702	1.12359	0.841452	1.29463	0.993985	0.575329	0.0284004	-0.0917495	0.546117	-0.235052	0	0	0.0172653	-0.123932	-0.283139	0.651888	-0.0776018	0	0	0.0510828	0.188374	0.32409	-0.493348	-0.565919	-0.330291	1.6925	0.542564	0	0	0.431625	-0.33072	0.629595	1.04885	0.739977	0	0
0.06	-2.67229	1.45304	1.11761	0.839104	1.28513	0.992833	0.578651	0.0341339	-0.088736	0.549598	-0.256932	0	0	0.0321767	-0.131224	-0.263925	0.69824	-0.076798	0	0	0.0537122	0.193643	0.326532	-0.493511	-0.566518	-0.331272	1.69484	0.54348	0	0	0.430091	-0.330239	0.626632	1.04971	0.74132	0	0
0.07	-2.66631	1.44931	1.10981	0.836619	1.27557	0.992078	0.580437	0.0398902	-0.0854704	0.555047	-0.276338	0	0	0.048868	-0.139308	-0.244962	0.747999	-0.0795882	0	0	0.0559782	0.19869	0.328986	-0.493064	-0.567121	-0.331361	1.69634	0.543682	0	0	0.428661	-0.329504	0.623528	1.04956	0.743007	0	0
0.08	-2.66654	1.44589	1.10876	0.834055	1.26607	0.991698	0.581827	0.0443821	-0.0777918	0.564901	-0.290347	0	0	0.0685243	-0.147495	-0.226661	0.800655	-0.0879382	0	0	0.0583792	0.202241	0.330683	-0.491719	-0.567666	-0.330265	1.69686	0.543952	0	0	0.427729	-0.328821	0.620661	1.04842	0.744626	0	0
0.09	-2.66523	1.44399	1.10667	0.831436	1.25659	0.991778	0.582835	0.0484057	-0.066879	0.580396	-0.295803	0	0	0.0888837	-0.154673	-0.205765	0.854255	-0.101433	0	0	0.0592933	0.204669	0.331712	-0.489424	-0.568249	-0.328363	1.69666	0.544635	0	0	0.427514	-0.328418	0.618446	1.04654	0.746084	0	0
0.1	-2.65585	1.44345	1.09724	0.828825	1.2472	0.992371	0.582868	0.053411	-0.0544317	0.59973	-0.293982	0	0	0.109933	-0.161955	-0.184071	0.908264	-0.119807	0	0	0.0582542	0.206969	0.332027	-0.486008	-0.568621	-0.326051	1.69567	0.545442	0	0	0.428058	-0.327993	0.616988	1.04382	0.747352	0	0
0.11	-2.68929	1.43184	1.13711	0.827008	1.23897	0.991849	0.598674	0.0548576	-0.043552	0.624089	-0.288375	0	0	0.153007	-0.163954	-0.144362	0.969635	-0.139688	0	0	0.0712859	0.208636	0.325832	-0.483989	-0.568302	-0.324902	1.6953	0.546318	0	0	0.428373	-0.327357	0.616072	1.04112	0.74767	0	0
0.12	-2.68104	1.43138	1.1304	0.82512	1.22967	0.993274	0.594102	0.0583906	-0.0372143	0.635573	-0.28353	0	0	0.175921	-0.166447	-0.118595	1.0155	-0.16292	0	0	0.0710564	0.211189	0.324176	-0.480963	-0.569747	-0.3223	1.69285	0.547483	0	0	0.42821	-0.325171	0.614606	1.03625	0.746782	0	0
0.13	-2.6641	1.43356	1.11374	0.82328	1.22027	0.995287	0.582365	0.0618009	-0.0353596	0.637879	-0.279339	0	0	0.193133	-0.168006	-0.0958394	1.05215	-0.186121	0	0	0.067266	0.213891	0.323655	-0.477861	-0.57196	-0.319576	1.69051	0.548391	0	0	0.427839	-0.322958	0.612881	1.03183	0.746141	0	0
0.14	-2.65033	1.43631	1.09854	0.821283	1.21079	0.997462	0.567998	0.0652619	-0.0356992	0.635285	-0.275192	0	0	0.206448	-0.1684	-0.0757072	1.07984	-0.199991	0	0	0.0631748	0.215647	0.324485	-0.47479	-0.574127	-0.316291	1.6882	0.548942	0	0	0.427118	-0.321951	0.61176	1.02861	0.746051	0	0
0.15	-2.64719	1.43918	1.09291	0.819222	1.2013	0.999617	0.553894	0.0679458	-0.0378262	0.632195	-0.270603	0	0	0.216729	-0.166704	-0.0572264	1.09961	-0.197958	0	0	0.0598259	0.215698	0.326245	-0.472059	-0.575979	-0.31272	1.68612	0.548967	0	0	0.426214	-0.322223	0.611602	1.02662	0.745993	0	0
0.16	-2.6573	1.44275	1.09953	0.817146	1.19187	1.00172	0.540677	0.0691603	-0.0405541	0.630701	-0.265144	0	0	0.224759	-0.162673	-0.0424624	1.11294	-0.186121	0	0	0.0564588	0.213538	0.329244	-0.469971	-0.577393	-0.309571	1.68471	0.548291	0	0	0.425481	-0.323428	0.612175	1.02593	0.744661	0	0
0.17	-2.67824	1.44723	1.11621	0.815078	1.18253	1.00378	0.527674	0.0694049	-0.042294	0.630492	-0.258076	0	0	0.231862	-0.157042	-0.0332309	1.12159	-0.17441	0	0	0.0523802	0.209641	0.333331	-0.46861	-0.578304	-0.307342	1.68438	0.547115	0	0	0.424988	-0.325485	0.613432	1.0267	0.741715	0	0
0.18	-2.70392	1.45093	1.1371	0.813054	1.17328	1.00537	0.516159	0.0699065	-0.0414002	0.631597	-0.249691	0	0	0.24102	-0.151953	-0.0288094	1.12916	-0.165299	0	0	0.0488774	0.205951	0.338665	-0.469627	-0.579087	-0.307375	1.68691	0.545189	0	0	0.424839	-0.328529	0.61591	1.02988	0.738033	0	0
0.19	-2.72939	1.45395	1.15877	0.81116	1.16425	1.0069	0.504288	0.070748	-0.0383548	0.630732	-0.24139	0	0	0.252098	-0.147084	-0.0245595	1.1348	-0.157154	0	0	0.0456002	0.202653	0.343543	-0.47152	-0.579536	-0.308698	1.69046	0.542884	0	0	0.425268	-0.331581	0.618918	1.03349	0.734725	0	0
0.2	-2.75059	1.45644	1.1774	0.809456	1.15532	1.0084	0.492237	0.0717616	-0.0347956	0.629264	-0.233294	0	0	0.264022	-0.142679	-0.0188471	1.13843	-0.146906	0	0	0.0426265	0.200182	0.347572	-0.47416	-0.57988	-0.310917	1.6947	0.540957	0	0	0.425818	-0.334112	0.621721	1.0372	0.730808	0	0
0.21	-2.73416	1.46484	1.15922	0.808007	1.14675	1.00999	0.473016	0.073686	-0.0319473	0.628932	-0.222752	0	0	0.268838	-0.14038	-0.0136866	1.14111	-0.132577	0	0	0.0299086	0.199542	0.352852	-0.478196	-0.581857	-0.316804	1.70288	0.537252	0	0	0.429862	-0.336027	0.626436	1.0427	0.725248	0	0
0.22	-2.66442	1.48033	1.08879	0.806806	1.13859	1.01223	0.443821	0.0758729	-0.0307973	0.626473	-0.212096	0	0	0.264696	-0.139102	-0.00913457	1.14015	-0.117661	0	0	0.00547777	0.200118	0.359135	-0.482461	-0.585178	-0.326045	1.7137	0.531082	0	0	0.437434	-0.336062	0.631486	1.04802	0.718856	0	0
0.23	-2.70631	1.47759	1.12972	0.805252	1.12919	1.01356	0.434972	0.0768543	-0.0265673	0.621241	-0.206558	0	0	0.281908	-0.135386	-0.00395045	1.13328	-0.107061	0	0	0.0111016	0.198696	0.360857	-0.485404	-0.583035	-0.327095	1.71477	0.529371	0	0	0.435112	-0.337209	0.632067	1.04871	0.716111	0	0
0.24	-2.73729	1.47504	1.16006	0.803861	1.12001	1.01485	0.425671	0.077653	-0.0230115	0.616163	-0.201571	0	0	0.299111	-0.132358	-0.000339567	1.12431	-0.0971045	0	0	0.016101	0.197993	0.362224	-0.487382	-0.58182	-0.32759	1.71509	0.528608	0	0	0.433387	-0.337625	0.632386	1.04853	0.714366	0	0
0.25	-2.76537	1.47328	1.1878	0.802699	1.11088	1.01625	0.414555	0.077623	-0.0205209	0.609103	-0.196751	0	0	0.315559	-0.129357	-0.00016269	1.11213	-0.0888095	0	0	0.0200035	0.197026	0.363477	-0.488852	-0.581005	-0.327964	1.71469	0.528458	0	0	0.431942	-0.337153	0.632271	1.04783	0.713434	0	0
0.26	-2.79349	1.47284	1.21561	0.801789	1.10178	1.01779	0.401739	0.0760641	-0.0217179	0.600789	-0.192516	0	0	0.330372	-0.125926	-0.0035896	1.09628	-0.0825388	0	0	0.0223699	0.195517	0.365047	-0.489932	-0.580638	-0.328328	1.71347	0.528996	0	0	0.430768	-0.335547	0.631554	1.0463	0.713475	0	0
0.27	-2.81504	1.47497	1.23671	0.801069	1.09288	1.01931	0.386789	0.0732652	-0.0276216	0.593099	-0.188974	0	0	0.342203	-0.122158	-0.00951315	1.0783	-0.0770596	0	0	0.0209182	0.19376	0.367408	-0.490728	-0.581217	-0.329504	1.71286	0.529097	0	0	0.43092	-0.333359	0.63081	1.04498	0.714393	0	0
0.28	-2.84405	1.47747	1.26501	0.800386	1.08406	1.02072	0.371784	0.0696872	-0.0350206	0.585003	-0.185458	0	0	0.35324	-0.117958	-0.0183211	1.05722	-0.0720057	0	0	0.0189789	0.191037	0.370109	-0.490804	-0.581689	-0.330439	1.71169	0.529105	0	0	0.431465	-0.330965	0.62972	1.04336	0.715948	0	0
0.29	-2.88367	1.47915	1.30319	0.799517	1.07523	1.02193	0.357898	0.0662479	-0.0411803	0.576965	-0.181477	0	0	0.364647	-0.114421	-0.0319938	1.03325	-0.0683711	0	0	0.0181346	0.187213	0.373179	-0.489838	-0.58164	-0.330308	1.70967	0.529715	0	0	0.431917	-0.329126	0.62824	1.04171	0.718027	0	0
0.3	-2.9297	1.48084	1.34774	0.798639	1.06641	1.02303	0.344112	0.0624873	-0.0466856	0.569223	-0.17675	0	0	0.37547	-0.110911	-0.0497062	1.00662	-0.0660496	0	0	0.0172767	0.182624	0.376003	-0.488145	-0.581551	-0.329486	1.70732	0.530762	0	0	0.432317	-0.327531	0.626332	1.04013	0.720317	0	0
0.31	-2.9808	1.48322	1.3974	0.797853	1.05758	1.02409	0.329738	0.0582159	-0.0514505	0.562183	-0.17171	0	0	0.384594	-0.106986	-0.0708122	0.977412	-0.0651915	0	0	0.01537	0.177425	0.378469	-0.485842	-0.581624	-0.328231	1.70489	0.531912	0	0	0.432874	-0.326303	0.62457	1.03894	0.72324	0	0
0.32	-2.99659	1.49997	1.41137	0.797231	1.04941	1.02571	0.300334	0.0545543	-0.0563911	0.556288	-0.164309	0	0	0.377532	-0.1053	-0.0983866	0.947447	-0.0645408	0	0	-0.00686148	0.172941	0.383385	-0.483224	-0.585171	-0.331098	1.70791	0.531565	0	0	0.439147	-0.324395	0.624193	1.04058	0.726636	0	0
0.33	-3.05792	1.50718	1.47146	0.796694	1.04055	1.02696	0.28039	0.0497673	-0.0600711	0.549348	-0.158616	0	0	0.378915	-0.101441	-0.126606	0.912827	-0.0660446	0	0	-0.0157151	0.167711	0.386105	-0.48133	-0.585756	-0.331629	1.70768	0.531652	0	0	0.440782	-0.322639	0.621958	1.03999	0.729428	0	0
